G75*
%MOIN*%
%OFA0B0*%
%FSLAX24Y24*%
%IPPOS*%
%LPD*%
%AMOC8*
5,1,8,0,0,1.08239X$1,22.5*
%
%ADD10C,0.0000*%
D10*
X000619Y001800D02*
X000619Y030934D01*
X000621Y031000D01*
X000626Y031066D01*
X000636Y031132D01*
X000649Y031197D01*
X000665Y031261D01*
X000685Y031324D01*
X000709Y031386D01*
X000736Y031446D01*
X000766Y031505D01*
X000800Y031562D01*
X000837Y031617D01*
X000877Y031670D01*
X000919Y031721D01*
X000965Y031769D01*
X001013Y031815D01*
X001064Y031857D01*
X001117Y031897D01*
X001172Y031934D01*
X001229Y031968D01*
X001288Y031998D01*
X001348Y032025D01*
X001410Y032049D01*
X001473Y032069D01*
X001537Y032085D01*
X001602Y032098D01*
X001668Y032108D01*
X001734Y032113D01*
X001800Y032115D01*
X030934Y032115D01*
X031000Y032113D01*
X031066Y032108D01*
X031132Y032098D01*
X031197Y032085D01*
X031261Y032069D01*
X031324Y032049D01*
X031386Y032025D01*
X031446Y031998D01*
X031505Y031968D01*
X031562Y031934D01*
X031617Y031897D01*
X031670Y031857D01*
X031721Y031815D01*
X031769Y031769D01*
X031815Y031721D01*
X031857Y031670D01*
X031897Y031617D01*
X031934Y031562D01*
X031968Y031505D01*
X031998Y031446D01*
X032025Y031386D01*
X032049Y031324D01*
X032069Y031261D01*
X032085Y031197D01*
X032098Y031132D01*
X032108Y031066D01*
X032113Y031000D01*
X032115Y030934D01*
X032115Y001800D01*
X032113Y001734D01*
X032108Y001668D01*
X032098Y001602D01*
X032085Y001537D01*
X032069Y001473D01*
X032049Y001410D01*
X032025Y001348D01*
X031998Y001288D01*
X031968Y001229D01*
X031934Y001172D01*
X031897Y001117D01*
X031857Y001064D01*
X031815Y001013D01*
X031769Y000965D01*
X031721Y000919D01*
X031670Y000877D01*
X031617Y000837D01*
X031562Y000800D01*
X031505Y000766D01*
X031446Y000736D01*
X031386Y000709D01*
X031324Y000685D01*
X031261Y000665D01*
X031197Y000649D01*
X031132Y000636D01*
X031066Y000626D01*
X031000Y000621D01*
X030934Y000619D01*
X001800Y000619D01*
X001734Y000621D01*
X001668Y000626D01*
X001602Y000636D01*
X001537Y000649D01*
X001473Y000665D01*
X001410Y000685D01*
X001348Y000709D01*
X001288Y000736D01*
X001229Y000766D01*
X001172Y000800D01*
X001117Y000837D01*
X001064Y000877D01*
X001013Y000919D01*
X000965Y000965D01*
X000919Y001013D01*
X000877Y001064D01*
X000837Y001117D01*
X000800Y001172D01*
X000766Y001229D01*
X000736Y001288D01*
X000709Y001348D01*
X000685Y001410D01*
X000665Y001473D01*
X000649Y001537D01*
X000636Y001602D01*
X000626Y001668D01*
X000621Y001734D01*
X000619Y001800D01*
X001489Y018119D02*
X001491Y018169D01*
X001497Y018219D01*
X001507Y018268D01*
X001521Y018316D01*
X001538Y018363D01*
X001559Y018408D01*
X001584Y018452D01*
X001612Y018493D01*
X001644Y018532D01*
X001678Y018569D01*
X001715Y018603D01*
X001755Y018633D01*
X001797Y018660D01*
X001841Y018684D01*
X001887Y018705D01*
X001934Y018721D01*
X001982Y018734D01*
X002032Y018743D01*
X002081Y018748D01*
X002132Y018749D01*
X002182Y018746D01*
X002231Y018739D01*
X002280Y018728D01*
X002328Y018713D01*
X002374Y018695D01*
X002419Y018673D01*
X002462Y018647D01*
X002503Y018618D01*
X002542Y018586D01*
X002578Y018551D01*
X002610Y018513D01*
X002640Y018473D01*
X002667Y018430D01*
X002690Y018386D01*
X002709Y018340D01*
X002725Y018292D01*
X002737Y018243D01*
X002745Y018194D01*
X002749Y018144D01*
X002749Y018094D01*
X002745Y018044D01*
X002737Y017995D01*
X002725Y017946D01*
X002709Y017898D01*
X002690Y017852D01*
X002667Y017808D01*
X002640Y017765D01*
X002610Y017725D01*
X002578Y017687D01*
X002542Y017652D01*
X002503Y017620D01*
X002462Y017591D01*
X002419Y017565D01*
X002374Y017543D01*
X002328Y017525D01*
X002280Y017510D01*
X002231Y017499D01*
X002182Y017492D01*
X002132Y017489D01*
X002081Y017490D01*
X002032Y017495D01*
X001982Y017504D01*
X001934Y017517D01*
X001887Y017533D01*
X001841Y017554D01*
X001797Y017578D01*
X001755Y017605D01*
X001715Y017635D01*
X001678Y017669D01*
X001644Y017706D01*
X001612Y017745D01*
X001584Y017786D01*
X001559Y017830D01*
X001538Y017875D01*
X001521Y017922D01*
X001507Y017970D01*
X001497Y018019D01*
X001491Y018069D01*
X001489Y018119D01*
X010489Y018119D02*
X010491Y018169D01*
X010497Y018219D01*
X010507Y018268D01*
X010521Y018316D01*
X010538Y018363D01*
X010559Y018408D01*
X010584Y018452D01*
X010612Y018493D01*
X010644Y018532D01*
X010678Y018569D01*
X010715Y018603D01*
X010755Y018633D01*
X010797Y018660D01*
X010841Y018684D01*
X010887Y018705D01*
X010934Y018721D01*
X010982Y018734D01*
X011032Y018743D01*
X011081Y018748D01*
X011132Y018749D01*
X011182Y018746D01*
X011231Y018739D01*
X011280Y018728D01*
X011328Y018713D01*
X011374Y018695D01*
X011419Y018673D01*
X011462Y018647D01*
X011503Y018618D01*
X011542Y018586D01*
X011578Y018551D01*
X011610Y018513D01*
X011640Y018473D01*
X011667Y018430D01*
X011690Y018386D01*
X011709Y018340D01*
X011725Y018292D01*
X011737Y018243D01*
X011745Y018194D01*
X011749Y018144D01*
X011749Y018094D01*
X011745Y018044D01*
X011737Y017995D01*
X011725Y017946D01*
X011709Y017898D01*
X011690Y017852D01*
X011667Y017808D01*
X011640Y017765D01*
X011610Y017725D01*
X011578Y017687D01*
X011542Y017652D01*
X011503Y017620D01*
X011462Y017591D01*
X011419Y017565D01*
X011374Y017543D01*
X011328Y017525D01*
X011280Y017510D01*
X011231Y017499D01*
X011182Y017492D01*
X011132Y017489D01*
X011081Y017490D01*
X011032Y017495D01*
X010982Y017504D01*
X010934Y017517D01*
X010887Y017533D01*
X010841Y017554D01*
X010797Y017578D01*
X010755Y017605D01*
X010715Y017635D01*
X010678Y017669D01*
X010644Y017706D01*
X010612Y017745D01*
X010584Y017786D01*
X010559Y017830D01*
X010538Y017875D01*
X010521Y017922D01*
X010507Y017970D01*
X010497Y018019D01*
X010491Y018069D01*
X010489Y018119D01*
X021686Y025675D02*
X021688Y025716D01*
X021694Y025757D01*
X021704Y025797D01*
X021717Y025836D01*
X021734Y025873D01*
X021755Y025909D01*
X021779Y025943D01*
X021806Y025974D01*
X021835Y026002D01*
X021868Y026028D01*
X021902Y026050D01*
X021939Y026069D01*
X021977Y026084D01*
X022017Y026096D01*
X022057Y026104D01*
X022098Y026108D01*
X022140Y026108D01*
X022181Y026104D01*
X022221Y026096D01*
X022261Y026084D01*
X022299Y026069D01*
X022335Y026050D01*
X022370Y026028D01*
X022403Y026002D01*
X022432Y025974D01*
X022459Y025943D01*
X022483Y025909D01*
X022504Y025873D01*
X022521Y025836D01*
X022534Y025797D01*
X022544Y025757D01*
X022550Y025716D01*
X022552Y025675D01*
X022550Y025634D01*
X022544Y025593D01*
X022534Y025553D01*
X022521Y025514D01*
X022504Y025477D01*
X022483Y025441D01*
X022459Y025407D01*
X022432Y025376D01*
X022403Y025348D01*
X022370Y025322D01*
X022336Y025300D01*
X022299Y025281D01*
X022261Y025266D01*
X022221Y025254D01*
X022181Y025246D01*
X022140Y025242D01*
X022098Y025242D01*
X022057Y025246D01*
X022017Y025254D01*
X021977Y025266D01*
X021939Y025281D01*
X021903Y025300D01*
X021868Y025322D01*
X021835Y025348D01*
X021806Y025376D01*
X021779Y025407D01*
X021755Y025441D01*
X021734Y025477D01*
X021717Y025514D01*
X021704Y025553D01*
X021694Y025593D01*
X021688Y025634D01*
X021686Y025675D01*
X023119Y028831D02*
X023119Y021606D01*
X023121Y021552D01*
X023126Y021499D01*
X023135Y021446D01*
X023148Y021394D01*
X023164Y021342D01*
X023184Y021292D01*
X023207Y021244D01*
X023234Y021197D01*
X023263Y021152D01*
X023296Y021109D01*
X023331Y021069D01*
X023369Y021031D01*
X023409Y020996D01*
X023452Y020963D01*
X023497Y020934D01*
X023544Y020907D01*
X023592Y020884D01*
X023642Y020864D01*
X023694Y020848D01*
X023746Y020835D01*
X023799Y020826D01*
X023852Y020821D01*
X023906Y020819D01*
X028331Y020819D01*
X028385Y020821D01*
X028438Y020826D01*
X028491Y020835D01*
X028543Y020848D01*
X028595Y020864D01*
X028645Y020884D01*
X028693Y020907D01*
X028740Y020934D01*
X028785Y020963D01*
X028828Y020996D01*
X028868Y021031D01*
X028906Y021069D01*
X028941Y021109D01*
X028974Y021152D01*
X029003Y021197D01*
X029030Y021244D01*
X029053Y021292D01*
X029073Y021342D01*
X029089Y021394D01*
X029102Y021446D01*
X029111Y021499D01*
X029116Y021552D01*
X029118Y021606D01*
X029119Y021606D02*
X029119Y028831D01*
X029118Y028831D02*
X029116Y028885D01*
X029111Y028938D01*
X029102Y028991D01*
X029089Y029043D01*
X029073Y029095D01*
X029053Y029145D01*
X029030Y029193D01*
X029003Y029240D01*
X028974Y029285D01*
X028941Y029328D01*
X028906Y029368D01*
X028868Y029406D01*
X028828Y029441D01*
X028785Y029474D01*
X028740Y029503D01*
X028693Y029530D01*
X028645Y029553D01*
X028595Y029573D01*
X028543Y029589D01*
X028491Y029602D01*
X028438Y029611D01*
X028385Y029616D01*
X028331Y029618D01*
X028331Y029619D02*
X023906Y029619D01*
X023906Y029618D02*
X023852Y029616D01*
X023799Y029611D01*
X023746Y029602D01*
X023694Y029589D01*
X023642Y029573D01*
X023592Y029553D01*
X023544Y029530D01*
X023497Y029503D01*
X023452Y029474D01*
X023409Y029441D01*
X023369Y029406D01*
X023331Y029368D01*
X023296Y029328D01*
X023263Y029285D01*
X023234Y029240D01*
X023207Y029193D01*
X023184Y029145D01*
X023164Y029095D01*
X023148Y029043D01*
X023135Y028991D01*
X023126Y028938D01*
X023121Y028885D01*
X023119Y028831D01*
X029686Y025675D02*
X029688Y025716D01*
X029694Y025757D01*
X029704Y025797D01*
X029717Y025836D01*
X029734Y025873D01*
X029755Y025909D01*
X029779Y025943D01*
X029806Y025974D01*
X029835Y026002D01*
X029868Y026028D01*
X029902Y026050D01*
X029939Y026069D01*
X029977Y026084D01*
X030017Y026096D01*
X030057Y026104D01*
X030098Y026108D01*
X030140Y026108D01*
X030181Y026104D01*
X030221Y026096D01*
X030261Y026084D01*
X030299Y026069D01*
X030335Y026050D01*
X030370Y026028D01*
X030403Y026002D01*
X030432Y025974D01*
X030459Y025943D01*
X030483Y025909D01*
X030504Y025873D01*
X030521Y025836D01*
X030534Y025797D01*
X030544Y025757D01*
X030550Y025716D01*
X030552Y025675D01*
X030550Y025634D01*
X030544Y025593D01*
X030534Y025553D01*
X030521Y025514D01*
X030504Y025477D01*
X030483Y025441D01*
X030459Y025407D01*
X030432Y025376D01*
X030403Y025348D01*
X030370Y025322D01*
X030336Y025300D01*
X030299Y025281D01*
X030261Y025266D01*
X030221Y025254D01*
X030181Y025246D01*
X030140Y025242D01*
X030098Y025242D01*
X030057Y025246D01*
X030017Y025254D01*
X029977Y025266D01*
X029939Y025281D01*
X029903Y025300D01*
X029868Y025322D01*
X029835Y025348D01*
X029806Y025376D01*
X029779Y025407D01*
X029755Y025441D01*
X029734Y025477D01*
X029717Y025514D01*
X029704Y025553D01*
X029694Y025593D01*
X029688Y025634D01*
X029686Y025675D01*
M02*
