G75*
%MOIN*%
%OFA0B0*%
%FSLAX24Y24*%
%IPPOS*%
%LPD*%
%AMOC8*
5,1,8,0,0,1.08239X$1,22.5*
%
%ADD10C,0.1340*%
%ADD11C,0.0946*%
%ADD12C,0.0595*%
%ADD13C,0.0820*%
%ADD14R,0.0780X0.0780*%
%ADD15C,0.0780*%
%ADD16C,0.2380*%
%ADD17C,0.0437*%
%ADD18OC8,0.0437*%
D10*
X002119Y018119D03*
X011119Y018119D03*
D11*
X022119Y025675D03*
X030119Y025675D03*
D12*
X026619Y010603D03*
X026619Y008635D03*
D13*
X019619Y015119D03*
X019619Y016119D03*
X019619Y017119D03*
X019619Y018119D03*
X019619Y019119D03*
X019619Y020119D03*
X019619Y021119D03*
X019619Y022119D03*
X019619Y023119D03*
X019619Y024119D03*
X019619Y025119D03*
X019619Y026119D03*
X014744Y023681D03*
X014744Y022681D03*
X013619Y023119D03*
X013619Y024119D03*
X013619Y025119D03*
X013619Y026119D03*
X013619Y022119D03*
X013619Y021119D03*
X013619Y020119D03*
X013619Y019119D03*
X013619Y018119D03*
X013619Y017119D03*
X013619Y016119D03*
X013619Y015119D03*
X014119Y014119D03*
X015119Y014119D03*
X016119Y014119D03*
X017119Y014119D03*
X018119Y014119D03*
X019119Y014119D03*
X019119Y012619D03*
X018119Y012619D03*
X017119Y012619D03*
X016119Y012619D03*
X015119Y012619D03*
X014119Y012619D03*
X008619Y008119D03*
X008619Y007119D03*
X004119Y007119D03*
X004119Y008119D03*
X014744Y018556D03*
X014744Y019556D03*
D14*
X011119Y026119D03*
D15*
X010119Y026119D03*
X009119Y026119D03*
X008119Y026119D03*
X007119Y026119D03*
X006119Y026119D03*
X005119Y026119D03*
X004119Y026119D03*
X003119Y026119D03*
X002119Y026119D03*
X022119Y014119D03*
X023119Y014119D03*
X024119Y014119D03*
X025119Y014119D03*
X026119Y014119D03*
X027119Y014119D03*
X028119Y014119D03*
X029119Y014119D03*
X030119Y014119D03*
D16*
X001800Y001800D03*
X001800Y030934D03*
X030934Y030934D03*
X030934Y001800D03*
D17*
X022619Y010119D03*
X021619Y010119D03*
X021119Y013619D03*
X022619Y013619D03*
X023619Y013619D03*
X024869Y015619D03*
X023619Y016619D03*
X022619Y016119D03*
X021619Y016119D03*
X008619Y010619D03*
X004119Y010619D03*
D18*
X012369Y022369D03*
M02*
