G75*
%MOIN*%
%OFA0B0*%
%FSLAX24Y24*%
%IPPOS*%
%LPD*%
%AMOC8*
5,1,8,0,0,1.08239X$1,22.5*
%
%ADD10C,0.0515*%
%ADD11C,0.0740*%
%ADD12R,0.0700X0.0700*%
%ADD13C,0.0700*%
%ADD14C,0.2300*%
%ADD15C,0.0500*%
%ADD16C,0.0357*%
%ADD17C,0.0120*%
%ADD18C,0.0100*%
%ADD19OC8,0.0357*%
D10*
X026619Y008635D03*
X026619Y010603D03*
D11*
X019619Y015119D03*
X019619Y016119D03*
X019619Y017119D03*
X019619Y018119D03*
X019619Y019119D03*
X019619Y020119D03*
X019619Y021119D03*
X019619Y022119D03*
X019619Y023119D03*
X019619Y024119D03*
X019619Y025119D03*
X019619Y026119D03*
X014744Y023681D03*
X014744Y022681D03*
X013619Y023119D03*
X013619Y024119D03*
X013619Y025119D03*
X013619Y026119D03*
X013619Y022119D03*
X013619Y021119D03*
X013619Y020119D03*
X013619Y019119D03*
X013619Y018119D03*
X013619Y017119D03*
X013619Y016119D03*
X013619Y015119D03*
X014119Y014119D03*
X015119Y014119D03*
X016119Y014119D03*
X017119Y014119D03*
X018119Y014119D03*
X019119Y014119D03*
X019119Y012619D03*
X018119Y012619D03*
X017119Y012619D03*
X016119Y012619D03*
X015119Y012619D03*
X014119Y012619D03*
X008619Y008119D03*
X008619Y007119D03*
X004119Y007119D03*
X004119Y008119D03*
X014744Y018556D03*
X014744Y019556D03*
D12*
X011119Y026119D03*
D13*
X010119Y026119D03*
X009119Y026119D03*
X008119Y026119D03*
X007119Y026119D03*
X006119Y026119D03*
X005119Y026119D03*
X004119Y026119D03*
X003119Y026119D03*
X002119Y026119D03*
X022119Y014119D03*
X023119Y014119D03*
X024119Y014119D03*
X025119Y014119D03*
X026119Y014119D03*
X027119Y014119D03*
X028119Y014119D03*
X029119Y014119D03*
X030119Y014119D03*
D14*
X001800Y001800D03*
X001800Y030934D03*
X030934Y030934D03*
X030934Y001800D03*
D15*
X026619Y010603D02*
X026619Y011119D01*
X027119Y011119D01*
X029119Y013119D01*
X029119Y014119D01*
X028119Y014119D02*
X028119Y013619D01*
X027119Y012619D01*
X021119Y012619D01*
X019619Y014119D01*
X019119Y014119D01*
X018119Y014119D02*
X018119Y015619D01*
X017619Y016119D01*
X018119Y016619D01*
X018119Y017619D01*
X018619Y018119D01*
X019619Y018119D01*
X017619Y016119D02*
X013619Y016119D01*
X017119Y012619D02*
X017119Y011619D01*
X017619Y011119D01*
X026619Y011119D01*
D16*
X023619Y013619D03*
X022619Y013619D03*
X021119Y013619D03*
X021619Y016119D03*
X022619Y016119D03*
X023619Y016619D03*
X024869Y015619D03*
X022619Y010119D03*
X021619Y010119D03*
X008619Y010619D03*
X004119Y010619D03*
D17*
X004619Y011119D01*
X012119Y011119D01*
X013119Y010119D01*
X021619Y010119D01*
X022119Y009619D02*
X012619Y009619D01*
X011619Y010619D01*
X008619Y010619D01*
X021119Y013619D02*
X021119Y015619D01*
X021619Y016119D01*
X022619Y016119D02*
X022619Y013619D01*
X023619Y013619D02*
X023619Y016619D01*
X024869Y015619D02*
X025119Y015369D01*
X025119Y014119D01*
X022619Y010119D02*
X022119Y009619D01*
D18*
X019619Y019119D02*
X019119Y019119D01*
X018619Y019619D01*
X018619Y020619D01*
X018119Y021119D01*
X014619Y021119D01*
X014119Y021619D01*
X012869Y021619D01*
X012869Y022619D01*
X010619Y025119D01*
X008119Y025119D01*
X007119Y026119D01*
X008119Y026119D02*
X008119Y027619D01*
X008619Y028119D01*
X013119Y028119D01*
X013619Y027619D01*
X013619Y026119D01*
X013619Y025119D02*
X013119Y025119D01*
X012619Y025619D01*
X012619Y027119D01*
X012119Y027619D01*
X009619Y027619D01*
X009119Y027119D01*
X009119Y026119D01*
X010119Y026119D02*
X010119Y026619D01*
X010619Y027119D01*
X011619Y027119D01*
X012119Y026619D01*
X012119Y025119D01*
X013119Y024119D01*
X013619Y024119D01*
X013619Y023119D02*
X013119Y023119D01*
X011119Y025119D01*
X011119Y026119D01*
X010119Y024619D02*
X012369Y022369D01*
X010119Y024619D02*
X006619Y024619D01*
X005119Y026119D01*
D19*
X012369Y022369D03*
M02*
